<mxfile host="app.diagrams.net" agent="Mozilla/5.0 (X11; Linux x86_64; rv:130.0) Gecko/20100101 Firefox/130.0" version="24.7.13">
  <diagram name="Page-1" id="oBGYPwp4lOKGqAsg2NHw">
    <mxGraphModel dx="880" dy="406" grid="1" gridSize="10" guides="1" tooltips="1" connect="1" arrows="1" fold="1" page="1" pageScale="1" pageWidth="850" pageHeight="1100" math="0" shadow="0">
      <root>
        <mxCell id="0" />
        <mxCell id="1" parent="0" />
        <mxCell id="vKdjkAp8o58ltTxv5JQb-7" value="" style="group" parent="1" vertex="1" connectable="0">
          <mxGeometry x="780" y="1650" width="880" height="610" as="geometry" />
        </mxCell>
        <mxCell id="6kEi7IjDMB66Cf_Pn6_A-1" value="&lt;u&gt;ID&lt;/u&gt;" style="ellipse;whiteSpace=wrap;html=1;" parent="vKdjkAp8o58ltTxv5JQb-7" vertex="1">
          <mxGeometry x="750" y="110" width="100" height="60" as="geometry" />
        </mxCell>
        <mxCell id="6kEi7IjDMB66Cf_Pn6_A-5" value="Time Ordered" style="ellipse;whiteSpace=wrap;html=1;" parent="vKdjkAp8o58ltTxv5JQb-7" vertex="1">
          <mxGeometry x="620" y="70" width="100" height="60" as="geometry" />
        </mxCell>
        <mxCell id="6kEi7IjDMB66Cf_Pn6_A-6" value="Time Completed" style="ellipse;whiteSpace=wrap;html=1;" parent="vKdjkAp8o58ltTxv5JQb-7" vertex="1">
          <mxGeometry x="480" y="100" width="100" height="60" as="geometry" />
        </mxCell>
        <mxCell id="6kEi7IjDMB66Cf_Pn6_A-7" value="Status" style="ellipse;whiteSpace=wrap;html=1;" parent="vKdjkAp8o58ltTxv5JQb-7" vertex="1">
          <mxGeometry x="780" y="230" width="100" height="60" as="geometry" />
        </mxCell>
        <mxCell id="6kEi7IjDMB66Cf_Pn6_A-8" value="Table" style="ellipse;whiteSpace=wrap;html=1;" parent="vKdjkAp8o58ltTxv5JQb-7" vertex="1">
          <mxGeometry x="480" y="270" width="100" height="60" as="geometry" />
        </mxCell>
        <mxCell id="6kEi7IjDMB66Cf_Pn6_A-9" value="Name" style="ellipse;whiteSpace=wrap;html=1;" parent="vKdjkAp8o58ltTxv5JQb-7" vertex="1">
          <mxGeometry y="100" width="100" height="60" as="geometry" />
        </mxCell>
        <mxCell id="6kEi7IjDMB66Cf_Pn6_A-10" value="&lt;u&gt;Server ID&lt;/u&gt;" style="ellipse;whiteSpace=wrap;html=1;" parent="vKdjkAp8o58ltTxv5JQb-7" vertex="1">
          <mxGeometry x="135" y="60" width="100" height="60" as="geometry" />
        </mxCell>
        <mxCell id="6kEi7IjDMB66Cf_Pn6_A-11" value="Assigned Tables" style="ellipse;whiteSpace=wrap;html=1;" parent="vKdjkAp8o58ltTxv5JQb-7" vertex="1">
          <mxGeometry x="20" y="270" width="100" height="60" as="geometry" />
        </mxCell>
        <mxCell id="6kEi7IjDMB66Cf_Pn6_A-12" value="Item Name" style="ellipse;whiteSpace=wrap;html=1;" parent="vKdjkAp8o58ltTxv5JQb-7" vertex="1">
          <mxGeometry x="180" y="480" width="100" height="60" as="geometry" />
        </mxCell>
        <mxCell id="6kEi7IjDMB66Cf_Pn6_A-13" value="&lt;u&gt;Item Number&lt;/u&gt;" style="ellipse;whiteSpace=wrap;html=1;" parent="vKdjkAp8o58ltTxv5JQb-7" vertex="1">
          <mxGeometry x="280" y="550" width="100" height="60" as="geometry" />
        </mxCell>
        <mxCell id="6kEi7IjDMB66Cf_Pn6_A-14" value="Price" style="ellipse;whiteSpace=wrap;html=1;" parent="vKdjkAp8o58ltTxv5JQb-7" vertex="1">
          <mxGeometry x="420" y="550" width="100" height="60" as="geometry" />
        </mxCell>
        <mxCell id="6kEi7IjDMB66Cf_Pn6_A-15" value="Description" style="ellipse;whiteSpace=wrap;html=1;" parent="vKdjkAp8o58ltTxv5JQb-7" vertex="1">
          <mxGeometry x="530" y="470" width="100" height="60" as="geometry" />
        </mxCell>
        <mxCell id="6kEi7IjDMB66Cf_Pn6_A-16" value="" style="shape=flexArrow;endArrow=none;startArrow=classic;html=1;rounded=0;endFill=0;entryX=0.016;entryY=0.583;entryDx=0;entryDy=0;entryPerimeter=0;" parent="vKdjkAp8o58ltTxv5JQb-7" target="6kEi7IjDMB66Cf_Pn6_A-21" edge="1">
          <mxGeometry width="100" height="100" relative="1" as="geometry">
            <mxPoint x="290" y="220" as="sourcePoint" />
            <mxPoint x="550" y="220" as="targetPoint" />
            <Array as="points">
              <mxPoint x="410" y="220" />
            </Array>
          </mxGeometry>
        </mxCell>
        <mxCell id="6kEi7IjDMB66Cf_Pn6_A-17" value="Completed By" style="edgeLabel;html=1;align=center;verticalAlign=middle;resizable=0;points=[];" parent="6kEi7IjDMB66Cf_Pn6_A-16" vertex="1" connectable="0">
          <mxGeometry x="-0.4167" y="-1" relative="1" as="geometry">
            <mxPoint x="64" as="offset" />
          </mxGeometry>
        </mxCell>
        <mxCell id="6kEi7IjDMB66Cf_Pn6_A-18" value="" style="shape=flexArrow;endArrow=none;startArrow=block;html=1;rounded=0;startFill=0;endFill=0;exitX=0.211;exitY=0.058;exitDx=0;exitDy=0;exitPerimeter=0;" parent="vKdjkAp8o58ltTxv5JQb-7" source="6kEi7IjDMB66Cf_Pn6_A-22" edge="1">
          <mxGeometry width="100" height="100" relative="1" as="geometry">
            <mxPoint x="351.9153515771129" y="405.9815377224636" as="sourcePoint" />
            <mxPoint x="227.9307398917208" y="264.0637027333951" as="targetPoint" />
          </mxGeometry>
        </mxCell>
        <mxCell id="6kEi7IjDMB66Cf_Pn6_A-19" value="Deliver" style="edgeLabel;html=1;align=center;verticalAlign=middle;resizable=0;points=[];" parent="6kEi7IjDMB66Cf_Pn6_A-18" vertex="1" connectable="0">
          <mxGeometry x="0.1014" y="5" relative="1" as="geometry">
            <mxPoint as="offset" />
          </mxGeometry>
        </mxCell>
        <mxCell id="6kEi7IjDMB66Cf_Pn6_A-24" style="rounded=0;orthogonalLoop=1;jettySize=auto;html=1;exitX=0.057;exitY=0.283;exitDx=0;exitDy=0;entryX=0.5;entryY=1;entryDx=0;entryDy=0;endArrow=none;endFill=0;exitPerimeter=0;" parent="vKdjkAp8o58ltTxv5JQb-7" source="6kEi7IjDMB66Cf_Pn6_A-20" target="6kEi7IjDMB66Cf_Pn6_A-9" edge="1">
          <mxGeometry relative="1" as="geometry" />
        </mxCell>
        <mxCell id="6kEi7IjDMB66Cf_Pn6_A-25" style="rounded=0;orthogonalLoop=1;jettySize=auto;html=1;exitX=0.5;exitY=0;exitDx=0;exitDy=0;entryX=0.5;entryY=1;entryDx=0;entryDy=0;endArrow=none;endFill=0;" parent="vKdjkAp8o58ltTxv5JQb-7" source="6kEi7IjDMB66Cf_Pn6_A-20" target="6kEi7IjDMB66Cf_Pn6_A-10" edge="1">
          <mxGeometry relative="1" as="geometry" />
        </mxCell>
        <mxCell id="6kEi7IjDMB66Cf_Pn6_A-20" value="Servers" style="ellipse;whiteSpace=wrap;html=1;" parent="vKdjkAp8o58ltTxv5JQb-7" vertex="1">
          <mxGeometry x="80" y="150" width="210" height="120" as="geometry" />
        </mxCell>
        <mxCell id="6kEi7IjDMB66Cf_Pn6_A-28" style="rounded=0;orthogonalLoop=1;jettySize=auto;html=1;exitX=1;exitY=1;exitDx=0;exitDy=0;entryX=0;entryY=0.5;entryDx=0;entryDy=0;endArrow=none;endFill=0;" parent="vKdjkAp8o58ltTxv5JQb-7" source="6kEi7IjDMB66Cf_Pn6_A-21" target="6kEi7IjDMB66Cf_Pn6_A-7" edge="1">
          <mxGeometry relative="1" as="geometry" />
        </mxCell>
        <mxCell id="6kEi7IjDMB66Cf_Pn6_A-36" value="" style="rounded=0;orthogonalLoop=1;jettySize=auto;html=1;endArrow=none;endFill=0;" parent="vKdjkAp8o58ltTxv5JQb-7" source="6kEi7IjDMB66Cf_Pn6_A-21" target="6kEi7IjDMB66Cf_Pn6_A-35" edge="1">
          <mxGeometry relative="1" as="geometry" />
        </mxCell>
        <mxCell id="6kEi7IjDMB66Cf_Pn6_A-21" value="Food Orders" style="ellipse;whiteSpace=wrap;html=1;" parent="vKdjkAp8o58ltTxv5JQb-7" vertex="1">
          <mxGeometry x="560" y="150" width="190" height="115" as="geometry" />
        </mxCell>
        <mxCell id="6kEi7IjDMB66Cf_Pn6_A-32" style="rounded=0;orthogonalLoop=1;jettySize=auto;html=1;exitX=1;exitY=1;exitDx=0;exitDy=0;entryX=0.5;entryY=0;entryDx=0;entryDy=0;endArrow=none;endFill=0;" parent="vKdjkAp8o58ltTxv5JQb-7" source="6kEi7IjDMB66Cf_Pn6_A-22" target="6kEi7IjDMB66Cf_Pn6_A-14" edge="1">
          <mxGeometry relative="1" as="geometry" />
        </mxCell>
        <mxCell id="6kEi7IjDMB66Cf_Pn6_A-33" style="rounded=0;orthogonalLoop=1;jettySize=auto;html=1;exitX=0;exitY=1;exitDx=0;exitDy=0;entryX=0.5;entryY=0;entryDx=0;entryDy=0;endArrow=none;endFill=0;" parent="vKdjkAp8o58ltTxv5JQb-7" source="6kEi7IjDMB66Cf_Pn6_A-22" target="6kEi7IjDMB66Cf_Pn6_A-13" edge="1">
          <mxGeometry relative="1" as="geometry" />
        </mxCell>
        <mxCell id="6kEi7IjDMB66Cf_Pn6_A-34" style="rounded=0;orthogonalLoop=1;jettySize=auto;html=1;exitX=0;exitY=0.5;exitDx=0;exitDy=0;endArrow=none;endFill=0;" parent="vKdjkAp8o58ltTxv5JQb-7" source="6kEi7IjDMB66Cf_Pn6_A-22" target="6kEi7IjDMB66Cf_Pn6_A-12" edge="1">
          <mxGeometry relative="1" as="geometry" />
        </mxCell>
        <mxCell id="6kEi7IjDMB66Cf_Pn6_A-22" value="Menu Items" style="ellipse;whiteSpace=wrap;html=1;" parent="vKdjkAp8o58ltTxv5JQb-7" vertex="1">
          <mxGeometry x="310" y="410" width="190" height="120" as="geometry" />
        </mxCell>
        <mxCell id="6kEi7IjDMB66Cf_Pn6_A-23" value="" style="endArrow=none;html=1;rounded=0;exitX=0.57;exitY=-0.017;exitDx=0;exitDy=0;entryX=0;entryY=1;entryDx=0;entryDy=0;exitPerimeter=0;" parent="vKdjkAp8o58ltTxv5JQb-7" source="6kEi7IjDMB66Cf_Pn6_A-11" target="6kEi7IjDMB66Cf_Pn6_A-20" edge="1">
          <mxGeometry width="50" height="50" relative="1" as="geometry">
            <mxPoint x="60" y="300" as="sourcePoint" />
            <mxPoint x="110" y="250" as="targetPoint" />
          </mxGeometry>
        </mxCell>
        <mxCell id="6kEi7IjDMB66Cf_Pn6_A-26" style="rounded=0;orthogonalLoop=1;jettySize=auto;html=1;exitX=0.5;exitY=0;exitDx=0;exitDy=0;endArrow=none;endFill=0;" parent="vKdjkAp8o58ltTxv5JQb-7" source="6kEi7IjDMB66Cf_Pn6_A-21" target="6kEi7IjDMB66Cf_Pn6_A-5" edge="1">
          <mxGeometry relative="1" as="geometry" />
        </mxCell>
        <mxCell id="6kEi7IjDMB66Cf_Pn6_A-27" style="rounded=0;orthogonalLoop=1;jettySize=auto;html=1;exitX=1.005;exitY=0.417;exitDx=0;exitDy=0;entryX=0.44;entryY=0.983;entryDx=0;entryDy=0;entryPerimeter=0;exitPerimeter=0;endArrow=none;endFill=0;" parent="vKdjkAp8o58ltTxv5JQb-7" source="6kEi7IjDMB66Cf_Pn6_A-21" target="6kEi7IjDMB66Cf_Pn6_A-1" edge="1">
          <mxGeometry relative="1" as="geometry" />
        </mxCell>
        <mxCell id="6kEi7IjDMB66Cf_Pn6_A-29" style="rounded=0;orthogonalLoop=1;jettySize=auto;html=1;exitX=0;exitY=1;exitDx=0;exitDy=0;entryX=0.79;entryY=0.067;entryDx=0;entryDy=0;entryPerimeter=0;endArrow=none;endFill=0;" parent="vKdjkAp8o58ltTxv5JQb-7" source="6kEi7IjDMB66Cf_Pn6_A-21" target="6kEi7IjDMB66Cf_Pn6_A-8" edge="1">
          <mxGeometry relative="1" as="geometry" />
        </mxCell>
        <mxCell id="6kEi7IjDMB66Cf_Pn6_A-30" style="rounded=0;orthogonalLoop=1;jettySize=auto;html=1;exitX=0.032;exitY=0.339;exitDx=0;exitDy=0;entryX=1;entryY=1;entryDx=0;entryDy=0;exitPerimeter=0;endArrow=none;endFill=0;" parent="vKdjkAp8o58ltTxv5JQb-7" source="6kEi7IjDMB66Cf_Pn6_A-21" target="6kEi7IjDMB66Cf_Pn6_A-6" edge="1">
          <mxGeometry relative="1" as="geometry">
            <mxPoint x="550" y="180" as="targetPoint" />
          </mxGeometry>
        </mxCell>
        <mxCell id="6kEi7IjDMB66Cf_Pn6_A-31" style="rounded=0;orthogonalLoop=1;jettySize=auto;html=1;exitX=1;exitY=0.5;exitDx=0;exitDy=0;entryX=0.03;entryY=0.333;entryDx=0;entryDy=0;entryPerimeter=0;endArrow=none;endFill=0;" parent="vKdjkAp8o58ltTxv5JQb-7" source="6kEi7IjDMB66Cf_Pn6_A-22" target="6kEi7IjDMB66Cf_Pn6_A-15" edge="1">
          <mxGeometry relative="1" as="geometry" />
        </mxCell>
        <mxCell id="6kEi7IjDMB66Cf_Pn6_A-43" style="rounded=0;orthogonalLoop=1;jettySize=auto;html=1;exitX=0.71;exitY=0.933;exitDx=0;exitDy=0;endArrow=none;endFill=0;exitPerimeter=0;" parent="vKdjkAp8o58ltTxv5JQb-7" source="6kEi7IjDMB66Cf_Pn6_A-35" target="6kEi7IjDMB66Cf_Pn6_A-42" edge="1">
          <mxGeometry relative="1" as="geometry" />
        </mxCell>
        <mxCell id="6kEi7IjDMB66Cf_Pn6_A-44" style="rounded=0;orthogonalLoop=1;jettySize=auto;html=1;exitX=1;exitY=0.5;exitDx=0;exitDy=0;entryX=0;entryY=0.5;entryDx=0;entryDy=0;endArrow=none;endFill=0;" parent="vKdjkAp8o58ltTxv5JQb-7" source="6kEi7IjDMB66Cf_Pn6_A-35" target="6kEi7IjDMB66Cf_Pn6_A-41" edge="1">
          <mxGeometry relative="1" as="geometry" />
        </mxCell>
        <mxCell id="6kEi7IjDMB66Cf_Pn6_A-35" value="List of Items" style="ellipse;whiteSpace=wrap;html=1;" parent="vKdjkAp8o58ltTxv5JQb-7" vertex="1">
          <mxGeometry x="620" y="310" width="100" height="60" as="geometry" />
        </mxCell>
        <mxCell id="6kEi7IjDMB66Cf_Pn6_A-37" value="" style="shape=flexArrow;endArrow=none;startArrow=block;html=1;rounded=0;startFill=0;endFill=0;entryX=0.24;entryY=0.9;entryDx=0;entryDy=0;entryPerimeter=0;" parent="vKdjkAp8o58ltTxv5JQb-7" source="6kEi7IjDMB66Cf_Pn6_A-22" target="6kEi7IjDMB66Cf_Pn6_A-35" edge="1">
          <mxGeometry width="100" height="100" relative="1" as="geometry">
            <mxPoint x="510" y="450" as="sourcePoint" />
            <mxPoint x="610" y="350" as="targetPoint" />
          </mxGeometry>
        </mxCell>
        <mxCell id="6kEi7IjDMB66Cf_Pn6_A-38" value="Comes From" style="edgeLabel;html=1;align=center;verticalAlign=middle;resizable=0;points=[];" parent="6kEi7IjDMB66Cf_Pn6_A-37" vertex="1" connectable="0">
          <mxGeometry x="-0.0017" y="-2" relative="1" as="geometry">
            <mxPoint y="-1" as="offset" />
          </mxGeometry>
        </mxCell>
        <mxCell id="6kEi7IjDMB66Cf_Pn6_A-41" value="Name" style="ellipse;whiteSpace=wrap;html=1;" parent="vKdjkAp8o58ltTxv5JQb-7" vertex="1">
          <mxGeometry x="750" y="330" width="70" height="50" as="geometry" />
        </mxCell>
        <mxCell id="6kEi7IjDMB66Cf_Pn6_A-42" value="Quantity" style="ellipse;whiteSpace=wrap;html=1;" parent="vKdjkAp8o58ltTxv5JQb-7" vertex="1">
          <mxGeometry x="690" y="390" width="80" height="50" as="geometry" />
        </mxCell>
        <mxCell id="6kEi7IjDMB66Cf_Pn6_A-45" value="&lt;font style=&quot;font-size: 17px;&quot;&gt;Restaurant Orders - Conceptual Model&lt;/font&gt;" style="text;html=1;align=center;verticalAlign=middle;whiteSpace=wrap;rounded=0;" parent="vKdjkAp8o58ltTxv5JQb-7" vertex="1">
          <mxGeometry x="270" width="300" height="50" as="geometry" />
        </mxCell>
        <mxCell id="vKdjkAp8o58ltTxv5JQb-8" value="" style="group" parent="1" vertex="1" connectable="0">
          <mxGeometry x="20" y="1660" width="545" height="550" as="geometry" />
        </mxCell>
        <mxCell id="yKjH85H14_hOySX867Lp-1" value="Servers" style="swimlane;fontStyle=0;childLayout=stackLayout;horizontal=1;startSize=30;horizontalStack=0;resizeParent=1;resizeParentMax=0;resizeLast=0;collapsible=1;marginBottom=0;whiteSpace=wrap;html=1;swimlaneLine=1;movable=1;resizable=1;rotatable=1;deletable=1;editable=1;locked=0;connectable=1;" parent="vKdjkAp8o58ltTxv5JQb-8" vertex="1">
          <mxGeometry y="35" width="170" height="210" as="geometry" />
        </mxCell>
        <mxCell id="yKjH85H14_hOySX867Lp-2" value="&lt;div&gt;server_id (PK)&lt;/div&gt;" style="text;strokeColor=none;fillColor=none;align=left;verticalAlign=middle;spacingLeft=4;spacingRight=4;overflow=hidden;points=[[0,0.5],[1,0.5]];portConstraint=eastwest;rotatable=1;whiteSpace=wrap;html=1;movable=1;resizable=1;deletable=1;editable=1;locked=0;connectable=1;" parent="yKjH85H14_hOySX867Lp-1" vertex="1">
          <mxGeometry y="30" width="170" height="30" as="geometry" />
        </mxCell>
        <mxCell id="yKjH85H14_hOySX867Lp-3" value="first_name" style="text;strokeColor=none;fillColor=none;align=left;verticalAlign=middle;spacingLeft=4;spacingRight=4;overflow=hidden;points=[[0,0.5],[1,0.5]];portConstraint=eastwest;rotatable=1;whiteSpace=wrap;html=1;movable=1;resizable=1;deletable=1;editable=1;locked=0;connectable=1;" parent="yKjH85H14_hOySX867Lp-1" vertex="1">
          <mxGeometry y="60" width="170" height="30" as="geometry" />
        </mxCell>
        <mxCell id="yKjH85H14_hOySX867Lp-4" value="&lt;div&gt;last_name&lt;/div&gt;&lt;div&gt;&lt;br&gt;&lt;/div&gt;&lt;div&gt;assingned_tables&lt;br&gt;&lt;/div&gt;&lt;br&gt;&lt;div&gt;job_type&lt;/div&gt;&lt;div&gt;&lt;br&gt;&lt;/div&gt;&lt;div&gt;availability&lt;br&gt;&lt;/div&gt;" style="text;strokeColor=none;fillColor=none;align=left;verticalAlign=middle;spacingLeft=4;spacingRight=4;overflow=hidden;points=[[0,0.5],[1,0.5]];portConstraint=eastwest;rotatable=1;whiteSpace=wrap;html=1;movable=1;resizable=1;deletable=1;editable=1;locked=0;connectable=1;" parent="yKjH85H14_hOySX867Lp-1" vertex="1">
          <mxGeometry y="90" width="170" height="120" as="geometry" />
        </mxCell>
        <mxCell id="yKjH85H14_hOySX867Lp-5" value="Food Orders" style="swimlane;fontStyle=0;childLayout=stackLayout;horizontal=1;startSize=30;horizontalStack=0;resizeParent=1;resizeParentMax=0;resizeLast=0;collapsible=1;marginBottom=0;whiteSpace=wrap;html=1;swimlaneLine=1;movable=1;resizable=1;rotatable=1;deletable=1;editable=1;locked=0;connectable=1;" parent="vKdjkAp8o58ltTxv5JQb-8" vertex="1">
          <mxGeometry x="375" width="170" height="300" as="geometry" />
        </mxCell>
        <mxCell id="yKjH85H14_hOySX867Lp-6" value="&lt;div&gt;order_id (PK)&lt;/div&gt;&lt;div&gt;&lt;br&gt;&lt;/div&gt;&lt;div&gt;server_id (FK)&lt;br&gt;&lt;/div&gt;" style="text;strokeColor=none;fillColor=none;align=left;verticalAlign=middle;spacingLeft=4;spacingRight=4;overflow=hidden;points=[[0,0.5],[1,0.5]];portConstraint=eastwest;rotatable=1;whiteSpace=wrap;html=1;movable=1;resizable=1;deletable=1;editable=1;locked=0;connectable=1;" parent="yKjH85H14_hOySX867Lp-5" vertex="1">
          <mxGeometry y="30" width="170" height="60" as="geometry" />
        </mxCell>
        <mxCell id="yKjH85H14_hOySX867Lp-7" value="order_type" style="text;strokeColor=none;fillColor=none;align=left;verticalAlign=middle;spacingLeft=4;spacingRight=4;overflow=hidden;points=[[0,0.5],[1,0.5]];portConstraint=eastwest;rotatable=1;whiteSpace=wrap;html=1;movable=1;resizable=1;deletable=1;editable=1;locked=0;connectable=1;" parent="yKjH85H14_hOySX867Lp-5" vertex="1">
          <mxGeometry y="90" width="170" height="30" as="geometry" />
        </mxCell>
        <mxCell id="yKjH85H14_hOySX867Lp-8" value="&lt;div&gt;&lt;br&gt;&lt;/div&gt;&lt;div&gt;date&lt;br&gt;&lt;/div&gt;&lt;div&gt;&lt;br&gt;&lt;/div&gt;&lt;div&gt;time_ordered&lt;br&gt;&lt;/div&gt;&lt;div&gt;&lt;br&gt;&lt;/div&gt;&lt;div&gt;time completed&lt;/div&gt;&lt;div&gt;&lt;br&gt;&lt;/div&gt;&lt;div&gt;status&lt;/div&gt;&lt;div&gt;&lt;br&gt;&lt;/div&gt;&lt;div&gt;table&lt;/div&gt;&lt;div&gt;&lt;br&gt;&lt;/div&gt;&lt;div&gt;special_instructions&lt;br&gt;&lt;/div&gt;&lt;div&gt;&lt;br&gt;&lt;/div&gt;&lt;div&gt;&lt;br&gt;&lt;/div&gt;" style="text;strokeColor=none;fillColor=none;align=left;verticalAlign=middle;spacingLeft=4;spacingRight=4;overflow=hidden;points=[[0,0.5],[1,0.5]];portConstraint=eastwest;rotatable=1;whiteSpace=wrap;html=1;movable=1;resizable=1;deletable=1;editable=1;locked=0;connectable=1;" parent="yKjH85H14_hOySX867Lp-5" vertex="1">
          <mxGeometry y="120" width="170" height="180" as="geometry" />
        </mxCell>
        <mxCell id="yKjH85H14_hOySX867Lp-9" value="Menu Items" style="swimlane;fontStyle=0;childLayout=stackLayout;horizontal=1;startSize=30;horizontalStack=0;resizeParent=1;resizeParentMax=0;resizeLast=0;collapsible=1;marginBottom=0;whiteSpace=wrap;html=1;swimlaneLine=1;movable=1;resizable=1;rotatable=1;deletable=1;editable=1;locked=0;connectable=1;" parent="vKdjkAp8o58ltTxv5JQb-8" vertex="1">
          <mxGeometry y="395" width="170" height="150" as="geometry" />
        </mxCell>
        <mxCell id="yKjH85H14_hOySX867Lp-10" value="&lt;div&gt;item_number (PK)&lt;/div&gt;" style="text;strokeColor=none;fillColor=none;align=left;verticalAlign=middle;spacingLeft=4;spacingRight=4;overflow=hidden;points=[[0,0.5],[1,0.5]];portConstraint=eastwest;rotatable=1;whiteSpace=wrap;html=1;movable=1;resizable=1;deletable=1;editable=1;locked=0;connectable=1;" parent="yKjH85H14_hOySX867Lp-9" vertex="1">
          <mxGeometry y="30" width="170" height="30" as="geometry" />
        </mxCell>
        <mxCell id="yKjH85H14_hOySX867Lp-11" value="item_name" style="text;strokeColor=none;fillColor=none;align=left;verticalAlign=middle;spacingLeft=4;spacingRight=4;overflow=hidden;points=[[0,0.5],[1,0.5]];portConstraint=eastwest;rotatable=1;whiteSpace=wrap;html=1;movable=1;resizable=1;deletable=1;editable=1;locked=0;connectable=1;" parent="yKjH85H14_hOySX867Lp-9" vertex="1">
          <mxGeometry y="60" width="170" height="30" as="geometry" />
        </mxCell>
        <mxCell id="yKjH85H14_hOySX867Lp-12" value="&lt;div&gt;price&lt;/div&gt;&lt;div&gt;&lt;br&gt;&lt;/div&gt;&lt;div&gt;description&lt;br&gt;&lt;/div&gt;" style="text;strokeColor=none;fillColor=none;align=left;verticalAlign=middle;spacingLeft=4;spacingRight=4;overflow=hidden;points=[[0,0.5],[1,0.5]];portConstraint=eastwest;rotatable=1;whiteSpace=wrap;html=1;movable=1;resizable=1;deletable=1;editable=1;locked=0;connectable=1;" parent="yKjH85H14_hOySX867Lp-9" vertex="1">
          <mxGeometry y="90" width="170" height="60" as="geometry" />
        </mxCell>
        <mxCell id="yKjH85H14_hOySX867Lp-13" value="Order Details" style="swimlane;fontStyle=0;childLayout=stackLayout;horizontal=1;startSize=30;horizontalStack=0;resizeParent=1;resizeParentMax=0;resizeLast=0;collapsible=1;marginBottom=0;whiteSpace=wrap;html=1;swimlaneLine=1;movable=1;resizable=1;rotatable=1;deletable=1;editable=1;locked=0;connectable=1;" parent="vKdjkAp8o58ltTxv5JQb-8" vertex="1">
          <mxGeometry x="375" y="360" width="170" height="190" as="geometry" />
        </mxCell>
        <mxCell id="yKjH85H14_hOySX867Lp-15" value="&lt;div&gt;&lt;div&gt;&lt;br&gt;&lt;/div&gt;&lt;div&gt;order_details_id (PK)&lt;br&gt;&lt;/div&gt;&lt;div&gt;&lt;br&gt;&lt;/div&gt;&lt;div&gt;item_number (FK)&lt;/div&gt;&lt;div&gt;&lt;br&gt;&lt;/div&gt;order_id (FK)&lt;/div&gt;&lt;div&gt;&lt;br&gt;&lt;/div&gt;&lt;div&gt;name&lt;/div&gt;&lt;div&gt;&lt;br&gt;&lt;/div&gt;&lt;div&gt;quantity&lt;br&gt;&lt;/div&gt;" style="text;strokeColor=none;fillColor=none;align=left;verticalAlign=middle;spacingLeft=4;spacingRight=4;overflow=hidden;points=[[0,0.5],[1,0.5]];portConstraint=eastwest;rotatable=1;whiteSpace=wrap;html=1;movable=1;resizable=1;deletable=1;editable=1;locked=0;connectable=1;" parent="yKjH85H14_hOySX867Lp-13" vertex="1">
          <mxGeometry y="30" width="170" height="160" as="geometry" />
        </mxCell>
        <mxCell id="yKjH85H14_hOySX867Lp-18" value="" style="fontSize=12;html=1;endArrow=ERoneToMany;rounded=0;exitX=1;exitY=0.5;exitDx=0;exitDy=0;entryX=-0.012;entryY=0.117;entryDx=0;entryDy=0;entryPerimeter=0;strokeWidth=2;movable=1;resizable=1;rotatable=1;deletable=1;editable=1;locked=0;connectable=1;" parent="vKdjkAp8o58ltTxv5JQb-8" source="yKjH85H14_hOySX867Lp-1" target="yKjH85H14_hOySX867Lp-8" edge="1">
          <mxGeometry width="100" height="100" relative="1" as="geometry">
            <mxPoint x="175" y="120" as="sourcePoint" />
            <mxPoint x="275" y="20" as="targetPoint" />
          </mxGeometry>
        </mxCell>
        <mxCell id="yKjH85H14_hOySX867Lp-20" value="" style="fontSize=12;html=1;endArrow=ERoneToMany;rounded=0;exitX=1;exitY=0.5;exitDx=0;exitDy=0;strokeWidth=2;entryX=0;entryY=0.5;entryDx=0;entryDy=0;movable=1;resizable=1;rotatable=1;deletable=1;editable=1;locked=0;connectable=1;" parent="vKdjkAp8o58ltTxv5JQb-8" source="yKjH85H14_hOySX867Lp-9" target="yKjH85H14_hOySX867Lp-15" edge="1">
          <mxGeometry width="100" height="100" relative="1" as="geometry">
            <mxPoint x="185" y="320" as="sourcePoint" />
            <mxPoint x="315" y="460" as="targetPoint" />
          </mxGeometry>
        </mxCell>
        <mxCell id="JsaUZtCov_IFww_ghbIw-3" value="" style="fontSize=12;html=1;endArrow=ERoneToMany;rounded=0;exitX=0.5;exitY=1;exitDx=0;exitDy=0;entryX=0.5;entryY=0;entryDx=0;entryDy=0;strokeWidth=2;movable=1;resizable=1;rotatable=1;deletable=1;editable=1;locked=0;connectable=1;" parent="vKdjkAp8o58ltTxv5JQb-8" source="yKjH85H14_hOySX867Lp-5" target="yKjH85H14_hOySX867Lp-13" edge="1">
          <mxGeometry width="100" height="100" relative="1" as="geometry">
            <mxPoint x="510" y="300" as="sourcePoint" />
            <mxPoint x="570" y="300" as="targetPoint" />
          </mxGeometry>
        </mxCell>
        <mxCell id="vKdjkAp8o58ltTxv5JQb-9" value="" style="group" parent="1" vertex="1" connectable="0">
          <mxGeometry x="180" y="230" width="1240" height="855" as="geometry" />
        </mxCell>
        <mxCell id="wOnYWSWFQKMtF1rlMSzY-1" value="servers" style="swimlane;fontStyle=0;childLayout=stackLayout;horizontal=1;startSize=30;horizontalStack=0;resizeParent=1;resizeParentMax=0;resizeLast=0;collapsible=1;marginBottom=0;whiteSpace=wrap;html=1;swimlaneLine=1;" parent="vKdjkAp8o58ltTxv5JQb-9" vertex="1">
          <mxGeometry y="270" width="570" height="170" as="geometry" />
        </mxCell>
        <mxCell id="wOnYWSWFQKMtF1rlMSzY-2" value="&lt;div&gt;server_id (PK)&lt;span style=&quot;white-space: pre;&quot;&gt;&#x9;&lt;/span&gt;&lt;span style=&quot;white-space: pre;&quot;&gt;&#x9;&lt;/span&gt;&lt;span style=&quot;white-space: pre;&quot;&gt;&#x9;&lt;/span&gt;INT&lt;span style=&quot;white-space: pre;&quot;&gt;&#x9;&lt;/span&gt;&lt;span style=&quot;white-space: pre;&quot;&gt;&#x9;&lt;/span&gt;&lt;span style=&quot;white-space: pre;&quot;&gt;&#x9;&lt;/span&gt;&lt;span style=&quot;white-space: pre;&quot;&gt;&#x9;&lt;/span&gt;IDENTITY&lt;br&gt;&lt;/div&gt;" style="text;strokeColor=default;fillColor=none;align=left;verticalAlign=middle;spacingLeft=4;spacingRight=4;overflow=hidden;points=[[0,0.5],[1,0.5]];portConstraint=eastwest;rotatable=0;whiteSpace=wrap;html=1;" parent="wOnYWSWFQKMtF1rlMSzY-1" vertex="1">
          <mxGeometry y="30" width="570" height="30" as="geometry" />
        </mxCell>
        <mxCell id="wOnYWSWFQKMtF1rlMSzY-4" value="&lt;div&gt;first_name&lt;span style=&quot;white-space: pre;&quot;&gt;&#x9;&lt;span style=&quot;white-space: pre;&quot;&gt;&#x9;&lt;span style=&quot;white-space: pre;&quot;&gt;&#x9;&lt;/span&gt;&lt;/span&gt;&lt;/span&gt;&lt;span style=&quot;white-space: pre;&quot;&gt;&#x9;&lt;/span&gt;NVARCHAR(35)&lt;span style=&quot;white-space: pre;&quot;&gt;&#x9;&lt;/span&gt;NOT NULL&lt;/div&gt;&lt;div&gt;&lt;br&gt;&lt;/div&gt;&lt;div&gt;last_name&lt;span style=&quot;white-space: pre;&quot;&gt;&#x9;&lt;/span&gt;&lt;span style=&quot;white-space: pre;&quot;&gt;&#x9;&lt;/span&gt;&lt;span style=&quot;white-space: pre;&quot;&gt;&#x9;&lt;span style=&quot;white-space: pre;&quot;&gt;&#x9;&lt;/span&gt;&lt;/span&gt;NVARCHAR(35)&lt;span style=&quot;white-space: pre;&quot;&gt;&#x9;&lt;/span&gt;NOT NULL&lt;br&gt;&lt;/div&gt;&lt;br&gt;&lt;div&gt;job_type&lt;span style=&quot;white-space: pre;&quot;&gt;&#x9;&lt;span style=&quot;white-space: pre;&quot;&gt;&#x9;&lt;span style=&quot;white-space: pre;&quot;&gt;&#x9;&lt;span style=&quot;white-space: pre;&quot;&gt;&#x9;&lt;/span&gt;VARCHAR(10)&lt;span style=&quot;white-space: pre;&quot;&gt;&#x9;&lt;/span&gt;NOT NULL&lt;span style=&quot;white-space: pre;&quot;&gt;&#x9;&lt;span style=&quot;white-space: pre;&quot;&gt;&#x9;&lt;/span&gt;&lt;/span&gt;CHECK(server, cook, front_desk, deliver)&lt;/span&gt;&lt;/span&gt;&lt;/span&gt;&lt;/div&gt;&lt;div&gt;&lt;br&gt;&lt;/div&gt;&lt;div&gt;availability&lt;span style=&quot;white-space: pre;&quot;&gt;&#x9;&lt;/span&gt;&lt;span style=&quot;white-space: pre;&quot;&gt;&#x9;&lt;/span&gt;&lt;span style=&quot;white-space: pre;&quot;&gt;&#x9;&lt;span style=&quot;white-space: pre;&quot;&gt;&#x9;&lt;/span&gt;VARCHAR(10)&lt;/span&gt;&lt;span style=&quot;white-space: pre;&quot;&gt;&#x9;NOT &lt;/span&gt;NULL&lt;span style=&quot;white-space: pre;&quot;&gt;&#x9;&lt;/span&gt;&lt;span style=&quot;white-space: pre;&quot;&gt;&#x9;&lt;/span&gt;&lt;br&gt;&lt;/div&gt;" style="text;strokeColor=none;fillColor=none;align=left;verticalAlign=middle;spacingLeft=4;spacingRight=4;overflow=hidden;points=[[0,0.5],[1,0.5]];portConstraint=eastwest;rotatable=0;whiteSpace=wrap;html=1;" parent="wOnYWSWFQKMtF1rlMSzY-1" vertex="1">
          <mxGeometry y="60" width="570" height="110" as="geometry" />
        </mxCell>
        <mxCell id="wOnYWSWFQKMtF1rlMSzY-5" value="food_orders" style="swimlane;fontStyle=0;childLayout=stackLayout;horizontal=1;startSize=30;horizontalStack=0;resizeParent=1;resizeParentMax=0;resizeLast=0;collapsible=1;marginBottom=0;whiteSpace=wrap;html=1;swimlaneLine=1;" parent="vKdjkAp8o58ltTxv5JQb-9" vertex="1">
          <mxGeometry x="690" y="240" width="550" height="290" as="geometry" />
        </mxCell>
        <mxCell id="wOnYWSWFQKMtF1rlMSzY-6" value="&lt;div&gt;order_id (PK)&lt;span style=&quot;white-space: pre;&quot;&gt;&#x9;&lt;span style=&quot;white-space: pre;&quot;&gt;&#x9;&lt;/span&gt;&lt;span style=&quot;white-space: pre;&quot;&gt;&#x9;&lt;/span&gt;INT&lt;span style=&quot;white-space: pre;&quot;&gt;&#x9;&lt;/span&gt;&lt;span style=&quot;white-space: pre;&quot;&gt;&#x9;&lt;/span&gt;&lt;span style=&quot;white-space: pre;&quot;&gt;&#x9;&lt;/span&gt;&lt;span style=&quot;white-space: pre;&quot;&gt;&#x9;&lt;/span&gt;IDENTITY&lt;/span&gt;&lt;/div&gt;&lt;div&gt;&lt;br&gt;&lt;/div&gt;&lt;div&gt;server_id (FK)&lt;span style=&quot;white-space: pre;&quot;&gt;&#x9;&lt;/span&gt;&lt;span style=&quot;white-space: pre;&quot;&gt;&#x9;&lt;/span&gt;&lt;span style=&quot;white-space: pre;&quot;&gt;&#x9;&lt;/span&gt;INT&lt;span style=&quot;white-space: pre;&quot;&gt;&#x9;&lt;/span&gt;&lt;span style=&quot;white-space: pre;&quot;&gt;&#x9;&lt;/span&gt;&lt;span style=&quot;white-space: pre;&quot;&gt;&#x9;&lt;/span&gt;&lt;span style=&quot;white-space: pre;&quot;&gt;&#x9;&lt;/span&gt;IDENTITY&lt;/div&gt;&lt;div&gt;&lt;br&gt;&lt;/div&gt;&lt;div&gt;table_id (FK)&lt;span style=&quot;white-space: pre;&quot;&gt;&#x9;&lt;/span&gt;&lt;span style=&quot;white-space: pre;&quot;&gt;&#x9;&lt;/span&gt;&lt;span style=&quot;white-space: pre;&quot;&gt;&#x9;&lt;/span&gt;INT&lt;span style=&quot;white-space: pre;&quot;&gt;&#x9;&lt;/span&gt;&lt;span style=&quot;white-space: pre;&quot;&gt;&#x9;&lt;/span&gt;&lt;span style=&quot;white-space: pre;&quot;&gt;&#x9;&lt;/span&gt;&lt;span style=&quot;white-space: pre;&quot;&gt;&#x9;&lt;/span&gt;IDENTITY&lt;br&gt;&lt;/div&gt;" style="text;strokeColor=default;fillColor=none;align=left;verticalAlign=middle;spacingLeft=4;spacingRight=4;overflow=hidden;points=[[0,0.5],[1,0.5]];portConstraint=eastwest;rotatable=0;whiteSpace=wrap;html=1;perimeterSpacing=1;" parent="wOnYWSWFQKMtF1rlMSzY-5" vertex="1">
          <mxGeometry y="30" width="550" height="80" as="geometry" />
        </mxCell>
        <mxCell id="wOnYWSWFQKMtF1rlMSzY-8" value="&lt;div&gt;&lt;br&gt;&lt;/div&gt;&lt;div&gt;order_type&lt;span style=&quot;white-space: pre;&quot;&gt;&#x9;&lt;/span&gt;&lt;span style=&quot;white-space: pre;&quot;&gt;&#x9;&lt;/span&gt;&lt;span style=&quot;white-space: pre;&quot;&gt;&#x9;&lt;/span&gt;&lt;span style=&quot;white-space: pre;&quot;&gt;&#x9;&lt;/span&gt;VARCHAR(30)&lt;span style=&quot;white-space: pre;&quot;&gt;&#x9;&lt;/span&gt;NOT NULL&lt;span style=&quot;white-space: pre;&quot;&gt;&#x9;&lt;/span&gt;&lt;span style=&quot;white-space: pre;&quot;&gt;&#x9;&lt;/span&gt;CHECK( sit_down, pickup, delivery)&lt;br&gt;&lt;/div&gt;&lt;div&gt;&lt;br&gt;&lt;/div&gt;&lt;div&gt;date&lt;span style=&quot;white-space: pre;&quot;&gt;&#x9;&lt;/span&gt;&lt;span style=&quot;white-space: pre;&quot;&gt;&#x9;&lt;/span&gt;&lt;span style=&quot;white-space: pre;&quot;&gt;&#x9;&lt;/span&gt;&lt;span style=&quot;white-space: pre;&quot;&gt;&#x9;&lt;/span&gt;&lt;span style=&quot;white-space: pre;&quot;&gt;&#x9;&lt;/span&gt;DATE&lt;span style=&quot;white-space: pre;&quot;&gt;&#x9;&lt;/span&gt;&lt;span style=&quot;white-space: pre;&quot;&gt;&#x9;&lt;/span&gt;&lt;span style=&quot;white-space: pre;&quot;&gt;&#x9;&lt;/span&gt;NOT NULL&lt;br&gt;&lt;/div&gt;&lt;div&gt;&lt;br&gt;&lt;/div&gt;&lt;div&gt;time_ordered&lt;span style=&quot;white-space: pre;&quot;&gt;&#x9;&lt;/span&gt;&lt;span style=&quot;white-space: pre;&quot;&gt;&#x9;&lt;/span&gt;&lt;span style=&quot;white-space: pre;&quot;&gt;&#x9;TIME&lt;span style=&quot;white-space: pre;&quot;&gt;&#x9;&lt;/span&gt;&lt;span style=&quot;white-space: pre;&quot;&gt;&#x9;&lt;/span&gt;&lt;span style=&quot;white-space: pre;&quot;&gt;&#x9;&lt;/span&gt;NOT NULL&lt;/span&gt;&lt;br&gt;&lt;/div&gt;&lt;div&gt;&lt;br&gt;&lt;/div&gt;&lt;div&gt;time completed&lt;span style=&quot;white-space: pre;&quot;&gt;&#x9;&lt;/span&gt;&lt;span style=&quot;white-space: pre;&quot;&gt;&#x9;&lt;/span&gt;&lt;span style=&quot;white-space: pre;&quot;&gt;&#x9;&lt;/span&gt;TIME&lt;span style=&quot;white-space: pre;&quot;&gt;&#x9;&lt;/span&gt;&lt;span style=&quot;white-space: pre;&quot;&gt;&#x9;&lt;/span&gt;&lt;span style=&quot;white-space: pre;&quot;&gt;&#x9;&lt;/span&gt;NULL&lt;/div&gt;&lt;div&gt;&lt;br&gt;&lt;/div&gt;&lt;div&gt;status&lt;span style=&quot;white-space: pre;&quot;&gt;&#x9;&lt;/span&gt;&lt;span style=&quot;white-space: pre;&quot;&gt;&#x9;&lt;/span&gt;&lt;span style=&quot;white-space: pre;&quot;&gt;&#x9;&lt;/span&gt;&lt;span style=&quot;white-space: pre;&quot;&gt;&#x9;&lt;/span&gt;&lt;span style=&quot;white-space: pre;&quot;&gt;&#x9;&lt;/span&gt;VARCHAR(10)&lt;span style=&quot;white-space: pre;&quot;&gt;&#x9;&lt;/span&gt;NOT NULL&lt;br&gt;&lt;/div&gt;&lt;div&gt;&lt;br&gt;&lt;/div&gt;&lt;div&gt;special_instructions&lt;span style=&quot;white-space: pre;&quot;&gt;&#x9;&lt;/span&gt;&lt;span style=&quot;white-space: pre;&quot;&gt;&#x9;&lt;/span&gt;VARCHAR(100)&lt;span style=&quot;white-space: pre;&quot;&gt;&#x9;&lt;/span&gt;NULL&lt;br&gt;&lt;/div&gt;&lt;div&gt;&lt;br&gt;&lt;/div&gt;&lt;div&gt;&lt;br&gt;&lt;/div&gt;" style="text;strokeColor=none;fillColor=none;align=left;verticalAlign=middle;spacingLeft=4;spacingRight=4;overflow=hidden;points=[[0,0.5],[1,0.5]];portConstraint=eastwest;rotatable=0;whiteSpace=wrap;html=1;" parent="wOnYWSWFQKMtF1rlMSzY-5" vertex="1">
          <mxGeometry y="110" width="550" height="180" as="geometry" />
        </mxCell>
        <mxCell id="wOnYWSWFQKMtF1rlMSzY-9" value="menu_items" style="swimlane;fontStyle=0;childLayout=stackLayout;horizontal=1;startSize=30;horizontalStack=0;resizeParent=1;resizeParentMax=0;resizeLast=0;collapsible=1;marginBottom=0;whiteSpace=wrap;html=1;swimlaneLine=1;" parent="vKdjkAp8o58ltTxv5JQb-9" vertex="1">
          <mxGeometry x="265" y="635" width="320" height="150" as="geometry" />
        </mxCell>
        <mxCell id="wOnYWSWFQKMtF1rlMSzY-10" value="&lt;div&gt;item_id (PK)&lt;span style=&quot;white-space: pre;&quot;&gt;&#x9;&lt;/span&gt;&lt;span style=&quot;white-space: pre;&quot;&gt;&#x9;&lt;span style=&quot;white-space: pre;&quot;&gt;&#x9;&lt;/span&gt;&lt;span style=&quot;white-space: pre;&quot;&gt;&#x9;&lt;/span&gt;INT&lt;span style=&quot;white-space: pre;&quot;&gt;&#x9;&lt;/span&gt;&lt;span style=&quot;white-space: pre;&quot;&gt;&#x9;&lt;/span&gt;&lt;/span&gt;&lt;span style=&quot;white-space: pre;&quot;&gt;&#x9;&lt;/span&gt;&lt;span style=&quot;white-space: pre;&quot;&gt;&#x9;&lt;/span&gt;IDENTITY&lt;br&gt;&lt;/div&gt;&lt;span style=&quot;white-space: pre;&quot;&gt;&lt;/span&gt;" style="text;strokeColor=default;fillColor=none;align=left;verticalAlign=middle;spacingLeft=4;spacingRight=4;overflow=hidden;points=[[0,0.5],[1,0.5]];portConstraint=eastwest;rotatable=0;whiteSpace=wrap;html=1;" parent="wOnYWSWFQKMtF1rlMSzY-9" vertex="1">
          <mxGeometry y="30" width="320" height="30" as="geometry" />
        </mxCell>
        <mxCell id="wOnYWSWFQKMtF1rlMSzY-12" value="&lt;div&gt;item_name&lt;span style=&quot;white-space: pre;&quot;&gt;&#x9;&lt;/span&gt;&lt;span style=&quot;white-space: pre;&quot;&gt;&#x9;&lt;/span&gt;&lt;span style=&quot;white-space: pre;&quot;&gt;&#x9;&lt;/span&gt;&lt;span style=&quot;white-space: pre;&quot;&gt;&#x9;&lt;/span&gt;VARCHAR(16)&lt;span style=&quot;white-space: pre;&quot;&gt;&#x9;&lt;/span&gt;NOT NULL&lt;br&gt;&lt;/div&gt;&lt;div&gt;&lt;br&gt;&lt;/div&gt;&lt;div&gt;price&lt;span style=&quot;white-space: pre;&quot;&gt;&#x9;&lt;/span&gt;&lt;span style=&quot;white-space: pre;&quot;&gt;&#x9;&lt;/span&gt;&lt;span style=&quot;white-space: pre;&quot;&gt;&#x9;&lt;/span&gt;&lt;span style=&quot;white-space: pre;&quot;&gt;&#x9;&lt;/span&gt;&lt;span style=&quot;white-space: pre;&quot;&gt;&#x9;DECIMAL(5,2)&lt;span style=&quot;white-space: pre;&quot;&gt;&#x9;&lt;/span&gt;NOT NULL&lt;/span&gt;&lt;/div&gt;" style="text;strokeColor=none;fillColor=none;align=left;verticalAlign=middle;spacingLeft=4;spacingRight=4;overflow=hidden;points=[[0,0.5],[1,0.5]];portConstraint=eastwest;rotatable=0;whiteSpace=wrap;html=1;" parent="wOnYWSWFQKMtF1rlMSzY-9" vertex="1">
          <mxGeometry y="60" width="320" height="90" as="geometry" />
        </mxCell>
        <mxCell id="wOnYWSWFQKMtF1rlMSzY-13" value="order_details" style="swimlane;fontStyle=0;childLayout=stackLayout;horizontal=1;startSize=30;horizontalStack=0;resizeParent=1;resizeParentMax=0;resizeLast=0;collapsible=1;marginBottom=0;whiteSpace=wrap;html=1;swimlaneLine=1;" parent="vKdjkAp8o58ltTxv5JQb-9" vertex="1">
          <mxGeometry x="690" y="635" width="320" height="220" as="geometry" />
        </mxCell>
        <mxCell id="wOnYWSWFQKMtF1rlMSzY-14" value="&lt;div&gt;&lt;div&gt;&lt;br&gt;&lt;/div&gt;&lt;div&gt;order_details_id (PK)&lt;span style=&quot;white-space: pre;&quot;&gt;&#x9;&lt;/span&gt;INT&lt;span style=&quot;white-space: pre;&quot;&gt;&#x9;&lt;/span&gt;&lt;span style=&quot;white-space: pre;&quot;&gt;&#x9;&lt;/span&gt;&lt;span style=&quot;white-space: pre;&quot;&gt;&#x9;&lt;/span&gt;&lt;span style=&quot;white-space: pre;&quot;&gt;&#x9;&lt;/span&gt;IDENTITY&lt;/div&gt;&lt;div&gt;&lt;br&gt;&lt;/div&gt;&lt;div&gt;order_id (FK)&lt;span style=&quot;white-space: pre;&quot;&gt;&#x9;&lt;span style=&quot;white-space: pre;&quot;&gt;&#x9;&lt;/span&gt;&lt;span style=&quot;white-space: pre;&quot;&gt;&#x9;&lt;/span&gt;INT&lt;span style=&quot;white-space: pre;&quot;&gt;&#x9;&lt;/span&gt;&lt;span style=&quot;white-space: pre;&quot;&gt;&#x9;&lt;/span&gt;&lt;span style=&quot;white-space: pre;&quot;&gt;&#x9;&lt;/span&gt;&lt;span style=&quot;white-space: pre;&quot;&gt;&#x9;&lt;/span&gt;IDENTiTY&lt;/span&gt;&lt;/div&gt;&lt;div&gt;&lt;br&gt;&lt;/div&gt;&lt;div&gt;item_id (FK)&lt;span style=&quot;white-space: pre;&quot;&gt;&#x9;&lt;/span&gt;&lt;span style=&quot;white-space: pre;&quot;&gt;&#x9;&lt;/span&gt;&lt;span style=&quot;white-space: pre;&quot;&gt;&#x9;&lt;/span&gt;&lt;span style=&quot;white-space: pre;&quot;&gt;&#x9;&lt;/span&gt;INT&lt;span style=&quot;white-space: pre;&quot;&gt;&#x9;&lt;/span&gt;&lt;span style=&quot;white-space: pre;&quot;&gt;&#x9;&lt;/span&gt;&lt;span style=&quot;white-space: pre;&quot;&gt;&#x9;&lt;/span&gt;&lt;span style=&quot;white-space: pre;&quot;&gt;&#x9;&lt;/span&gt;IDENTITY&lt;br&gt;&lt;/div&gt;&lt;/div&gt;&lt;div&gt;&lt;br&gt;&lt;/div&gt;" style="text;strokeColor=default;fillColor=none;align=left;verticalAlign=middle;spacingLeft=4;spacingRight=4;overflow=hidden;points=[[0,0.5],[1,0.5]];portConstraint=eastwest;rotatable=0;whiteSpace=wrap;html=1;" parent="wOnYWSWFQKMtF1rlMSzY-13" vertex="1">
          <mxGeometry y="30" width="320" height="100" as="geometry" />
        </mxCell>
        <mxCell id="wOnYWSWFQKMtF1rlMSzY-35" value="&lt;div&gt;name&lt;span style=&quot;white-space: pre;&quot;&gt;&#x9;&lt;/span&gt;&lt;span style=&quot;white-space: pre;&quot;&gt;&#x9;&lt;/span&gt;&lt;span style=&quot;white-space: pre;&quot;&gt;&#x9;&lt;/span&gt;&lt;span style=&quot;white-space: pre;&quot;&gt;&#x9;&lt;/span&gt;&lt;span style=&quot;white-space: pre;&quot;&gt;&#x9;&lt;/span&gt;VARCHAR(16)&lt;span style=&quot;white-space: pre;&quot;&gt;&#x9;&lt;/span&gt;NOT NULL&lt;br&gt;&lt;/div&gt;&lt;div&gt;&lt;br&gt;&lt;/div&gt;&lt;div&gt;quantity&lt;span style=&quot;white-space: pre;&quot;&gt;&#x9;&lt;/span&gt;&lt;span style=&quot;white-space: pre;&quot;&gt;&#x9;&lt;/span&gt;&lt;span style=&quot;white-space: pre;&quot;&gt;&#x9;&lt;/span&gt;&lt;span style=&quot;white-space: pre;&quot;&gt;&#x9;&lt;/span&gt;&lt;span style=&quot;white-space: pre;&quot;&gt;&#x9;TINYINT&lt;/span&gt;&lt;span style=&quot;white-space: pre;&quot;&gt;&#x9;&lt;/span&gt;&lt;span style=&quot;white-space: pre;&quot;&gt;&#x9;&lt;/span&gt;NOT NULL&lt;/div&gt;&lt;div&gt;&lt;br&gt;&lt;/div&gt;&lt;div&gt;total_price&lt;span style=&quot;white-space: pre;&quot;&gt;&#x9;&lt;/span&gt;&lt;span style=&quot;white-space: pre;&quot;&gt;&#x9;&lt;/span&gt;&lt;span style=&quot;white-space: pre;&quot;&gt;&#x9;&lt;/span&gt;&lt;span style=&quot;white-space: pre;&quot;&gt;&#x9;&lt;/span&gt;DECIMAL(6,2)&lt;span style=&quot;white-space: pre;&quot;&gt;&#x9;&lt;/span&gt;NOT NULL&lt;br&gt;&lt;/div&gt;" style="text;strokeColor=none;fillColor=none;align=left;verticalAlign=middle;spacingLeft=4;spacingRight=4;overflow=hidden;points=[[0,0.5],[1,0.5]];portConstraint=eastwest;rotatable=0;whiteSpace=wrap;html=1;" parent="wOnYWSWFQKMtF1rlMSzY-13" vertex="1">
          <mxGeometry y="130" width="320" height="90" as="geometry" />
        </mxCell>
        <mxCell id="wOnYWSWFQKMtF1rlMSzY-15" value="" style="fontSize=12;html=1;endArrow=ERoneToMany;rounded=0;exitX=1;exitY=0.5;exitDx=0;exitDy=0;entryX=-0.012;entryY=0.117;entryDx=0;entryDy=0;entryPerimeter=0;strokeWidth=2;" parent="vKdjkAp8o58ltTxv5JQb-9" source="wOnYWSWFQKMtF1rlMSzY-1" target="wOnYWSWFQKMtF1rlMSzY-8" edge="1">
          <mxGeometry width="100" height="100" relative="1" as="geometry">
            <mxPoint x="488" y="360" as="sourcePoint" />
            <mxPoint x="588" y="260" as="targetPoint" />
          </mxGeometry>
        </mxCell>
        <mxCell id="wOnYWSWFQKMtF1rlMSzY-16" value="" style="fontSize=12;html=1;endArrow=ERoneToMany;rounded=0;exitX=1.009;exitY=0.233;exitDx=0;exitDy=0;strokeWidth=2;exitPerimeter=0;" parent="vKdjkAp8o58ltTxv5JQb-9" source="wOnYWSWFQKMtF1rlMSzY-12" edge="1">
          <mxGeometry width="100" height="100" relative="1" as="geometry">
            <mxPoint x="498" y="560" as="sourcePoint" />
            <mxPoint x="690" y="715" as="targetPoint" />
          </mxGeometry>
        </mxCell>
        <mxCell id="wOnYWSWFQKMtF1rlMSzY-17" value="" style="fontSize=12;html=1;endArrow=ERoneToMany;rounded=0;exitX=0.5;exitY=1;exitDx=0;exitDy=0;entryX=0.5;entryY=0;entryDx=0;entryDy=0;strokeWidth=2;" parent="vKdjkAp8o58ltTxv5JQb-9" source="wOnYWSWFQKMtF1rlMSzY-5" target="wOnYWSWFQKMtF1rlMSzY-13" edge="1">
          <mxGeometry width="100" height="100" relative="1" as="geometry">
            <mxPoint x="823" y="540" as="sourcePoint" />
            <mxPoint x="883" y="540" as="targetPoint" />
          </mxGeometry>
        </mxCell>
        <mxCell id="vKdjkAp8o58ltTxv5JQb-1" value="tables" style="swimlane;fontStyle=0;childLayout=stackLayout;horizontal=1;startSize=30;horizontalStack=0;resizeParent=1;resizeParentMax=0;resizeLast=0;collapsible=1;marginBottom=0;whiteSpace=wrap;html=1;swimlaneLine=1;" parent="vKdjkAp8o58ltTxv5JQb-9" vertex="1">
          <mxGeometry x="490" width="320" height="120" as="geometry" />
        </mxCell>
        <mxCell id="vKdjkAp8o58ltTxv5JQb-3" value="&lt;div&gt;&lt;div&gt;table_id&amp;nbsp; (PK)&lt;span style=&quot;white-space: pre;&quot;&gt;&#x9;&lt;/span&gt;&lt;span style=&quot;white-space: pre;&quot;&gt;&#x9;&lt;/span&gt;&lt;span style=&quot;white-space: pre;&quot;&gt;&#x9;&lt;/span&gt;INT&lt;span style=&quot;white-space: pre;&quot;&gt;&#x9;&lt;/span&gt;&lt;span style=&quot;white-space: pre;&quot;&gt;&#x9;&lt;span style=&quot;white-space: pre;&quot;&gt;&#x9;&lt;/span&gt;&lt;span style=&quot;white-space: pre;&quot;&gt;&#x9;&lt;/span&gt;IDENTITY&lt;/span&gt;&lt;/div&gt;&lt;/div&gt;&lt;div&gt;&lt;br&gt;&lt;/div&gt;&lt;div&gt;order_id (FK)&lt;span style=&quot;white-space: pre;&quot;&gt;&#x9;&lt;span style=&quot;white-space: pre;&quot;&gt;&#x9;&lt;/span&gt;&lt;span style=&quot;white-space: pre;&quot;&gt;&#x9;&lt;/span&gt;INT&lt;span style=&quot;white-space: pre;&quot;&gt;&#x9;&lt;/span&gt;&lt;span style=&quot;white-space: pre;&quot;&gt;&#x9;&lt;/span&gt;&lt;span style=&quot;white-space: pre;&quot;&gt;&#x9;&lt;/span&gt;&lt;span style=&quot;white-space: pre;&quot;&gt;&#x9;&lt;/span&gt;IDENTITY&lt;/span&gt;&lt;/div&gt;&lt;div&gt;&lt;br&gt;&lt;/div&gt;server_id (FK)&lt;span style=&quot;white-space: pre;&quot;&gt;&#x9;&lt;/span&gt;&lt;span style=&quot;white-space: pre;&quot;&gt;&#x9;&lt;/span&gt;&lt;span style=&quot;white-space: pre;&quot;&gt;&#x9;&lt;/span&gt;INT&lt;span style=&quot;white-space: pre;&quot;&gt;&#x9;&lt;/span&gt;&lt;span style=&quot;white-space: pre;&quot;&gt;&#x9;&lt;/span&gt;&lt;span style=&quot;white-space: pre;&quot;&gt;&#x9;&lt;/span&gt;&lt;span style=&quot;white-space: pre;&quot;&gt;&#x9;&lt;/span&gt;IDENTITY" style="text;strokeColor=none;fillColor=none;align=left;verticalAlign=middle;spacingLeft=4;spacingRight=4;overflow=hidden;points=[[0,0.5],[1,0.5]];portConstraint=eastwest;rotatable=0;whiteSpace=wrap;html=1;" parent="vKdjkAp8o58ltTxv5JQb-1" vertex="1">
          <mxGeometry y="30" width="320" height="90" as="geometry" />
        </mxCell>
        <mxCell id="vKdjkAp8o58ltTxv5JQb-5" value="" style="fontSize=12;html=1;endArrow=ERoneToMany;rounded=0;entryX=0.244;entryY=1.014;entryDx=0;entryDy=0;entryPerimeter=0;exitX=0.872;exitY=0.005;exitDx=0;exitDy=0;strokeWidth=2;exitPerimeter=0;" parent="vKdjkAp8o58ltTxv5JQb-9" source="wOnYWSWFQKMtF1rlMSzY-1" target="vKdjkAp8o58ltTxv5JQb-3" edge="1">
          <mxGeometry width="100" height="100" relative="1" as="geometry">
            <mxPoint x="300" y="190" as="sourcePoint" />
            <mxPoint x="400" y="90" as="targetPoint" />
          </mxGeometry>
        </mxCell>
        <mxCell id="vKdjkAp8o58ltTxv5JQb-6" value="" style="endArrow=none;html=1;rounded=0;entryX=0.75;entryY=1;entryDx=0;entryDy=0;exitX=0.25;exitY=0;exitDx=0;exitDy=0;strokeWidth=2;" parent="vKdjkAp8o58ltTxv5JQb-9" source="wOnYWSWFQKMtF1rlMSzY-5" target="vKdjkAp8o58ltTxv5JQb-1" edge="1">
          <mxGeometry width="50" height="50" relative="1" as="geometry">
            <mxPoint x="800" y="215" as="sourcePoint" />
            <mxPoint x="850" y="165" as="targetPoint" />
          </mxGeometry>
        </mxCell>
      </root>
    </mxGraphModel>
  </diagram>
</mxfile>
